<?xml version="1.0" standalone="no"?>
<!DOCTYPE svg PUBLIC "-//W3C//DTD SVG 20010904//EN"
 "http://www.w3.org/TR/2001/REC-SVG-20010904/DTD/svg10.dtd">
<svg version="1.0" xmlns="http://www.w3.org/2000/svg"
 width="240.000000pt" height="210.000000pt" viewBox="0 0 240.000000 210.000000"
 preserveAspectRatio="xMidYMid meet">
<metadata>
Created by potrace 1.15, written by Peter Selinger 2001-2017
</metadata>
<g transform="translate(0.000000,210.000000) scale(0.100000,-0.100000)"
fill="#000000" stroke="none">
<path d="M276 2091 c-2 -3 -15 -42 -29 -87 -40 -127 -58 -238 -62 -380 l-3
-131 -41 -61 c-113 -165 -155 -352 -131 -592 27 -288 107 -473 269 -622 99
-93 221 -152 376 -184 174 -35 853 -42 1036 -10 195 35 344 108 465 231 66 66
90 100 128 176 107 217 143 540 86 765 -20 78 -63 170 -114 245 -32 45 -33 50
-39 180 -6 150 -25 264 -64 387 -29 95 -25 93 -149 62 -102 -26 -169 -58 -334
-159 l-135 -83 -60 6 c-165 16 -338 18 -468 6 l-137 -13 -53 33 c-127 81 -252
149 -326 179 -84 33 -209 63 -215 52z m1579 -991 c149 -71 248 -261 230 -443
-18 -187 -97 -316 -231 -379 -160 -75 -367 -103 -722 -95 -549 11 -738 102
-798 387 -22 103 -15 245 15 323 30 76 113 167 183 198 53 24 54 24 548 30
698 8 714 8 775 -21z"/>
<path d="M720 879 c-67 -41 -102 -113 -102 -205 -1 -212 218 -299 318 -128 32
54 42 145 24 208 -33 118 -150 179 -240 125z"/>
<path d="M1579 880 c-124 -66 -141 -289 -29 -384 128 -107 294 15 277 204 -14
153 -133 241 -248 180z"/>
</g>
</svg>
